<?xml version="1.0" encoding="utf-8"?>
<!-- Generator: Adobe Illustrator 16.0.0, SVG Export Plug-In . SVG Version: 6.00 Build 0)  -->
<!DOCTYPE svg PUBLIC "-//W3C//DTD SVG 1.1//EN" "http://www.w3.org/Graphics/SVG/1.1/DTD/svg11.dtd">
<svg version="1.1" id="Calque_1" xmlns="http://www.w3.org/2000/svg" xmlns:xlink="http://www.w3.org/1999/xlink" x="0px" y="0px"
	 width="350.248px" height="104.938px" viewBox="0 0 350.248 104.938" enable-background="new 0 0 350.248 104.938"
	 xml:space="preserve">
<g>
	<path fill="#FFFFFF" d="M37.15,104.938H0L18.488,0.081H69.27c4.094,0,8.284,0.728,12.576,2.174
		c4.285,1.448,8.059,3.695,11.318,6.74c3.254,3.049,5.708,6.992,7.35,11.834c1.641,4.846,1.865,10.662,0.67,17.451
		c-0.759,4.297-2.4,8.639-4.92,13.033c-2.523,4.395-5.766,8.338-9.729,11.832c-3.962,3.498-8.535,6.367-13.729,8.613
		c-5.188,2.246-10.777,3.371-16.771,3.371H42.404L37.15,104.938z M50.408,29.741l-2.824,16.029h3.145c2.595,0,4.998-0.6,7.208-1.797
		c2.208-1.199,3.558-3.195,4.052-5.992c0.512-2.895-0.119-4.992-1.887-6.291c-1.77-1.297-4.002-1.949-6.696-1.949H50.408z"/>
	<path fill="#FFFFFF" d="M206.297,104.858H174.84L218.646,0h39.845l6.977,104.858H234.01l-0.399-18.125h-20.522L206.297,104.858z
		 M232.438,34.753l-9.892,26.365h10.488L232.438,34.753z"/>
	<polygon fill="#FFFFFF" points="281.939,0 350.248,0 344.887,30.411 314.928,30.411 312.79,42.544 340.35,42.544 335.834,68.157 
		308.272,68.157 301.801,104.858 263.452,104.858 	"/>
	<polygon fill="#FFFFFF" points="151.616,0 113.27,0 110.115,18.126 148.461,18.126 	"/>
	<polygon fill="#FFFFFF" points="94.78,104.858 133.128,104.858 147.632,22.876 109.286,22.876 	"/>
	<polygon fill="#FFFFFF" points="195.336,0 156.988,0 153.835,18.126 192.182,18.126 	"/>
	<polygon fill="#FFFFFF" points="138.501,104.858 176.848,104.858 191.353,22.876 153.006,22.876 	"/>
</g>
</svg>
